<?xml version="1.0" standalone="no"?>
<!DOCTYPE svg PUBLIC "-//W3C//DTD SVG 20010904//EN"
 "http://www.w3.org/TR/2001/REC-SVG-20010904/DTD/svg10.dtd">
<svg version="1.0" xmlns="http://www.w3.org/2000/svg"
 width="140.000000pt" height="49.000000pt" viewBox="0 0 140.000000 49.000000"
 preserveAspectRatio="xMidYMid meet">

<g transform="translate(0.000000,49.000000) scale(0.100000,-0.100000)"
fill="#000000" stroke="none">
<path d="M0 245 l0 -245 700 0 700 0 0 245 0 245 -700 0 -700 0 0 -245z m568
188 c-2 -11 -14 -19 -31 -21 l-27 -3 0 -160 c0 -152 -1 -159 -20 -159 -19 0
-20 7 -20 160 l0 160 -25 0 c-18 0 -25 5 -25 20 0 18 7 20 76 20 66 0 75 -2
72 -17z m74 -145 l3 -163 38 -3 c24 -2 37 -8 37 -18 0 -10 -14 -14 -55 -14
l-55 0 0 180 c0 152 2 180 15 180 12 0 15 -27 17 -162z m263 137 c24 -23 25
-30 25 -150 0 -121 -7 -160 -34 -177 -6 -4 -37 -8 -68 -8 l-58 0 0 180 0 180
55 0 c46 0 60 -4 80 -25z"/>
<path d="M810 265 l0 -145 24 0 c47 0 56 22 56 141 0 126 -8 149 -50 149 l-30
0 0 -145z"/>
</g>
</svg>
